<?xml version="1.0" encoding="UTF-8"?>
<svg id="Camada_2" xmlns="http://www.w3.org/2000/svg" version="1.1" viewBox="0 0 633 566">
  <!-- Generator: Adobe Illustrator 30.2.1, SVG Export Plug-In . SVG Version: 2.1.1 Build 1)  -->
  <defs>
    <style>
      .st0 {
        fill: #1d1d1b;
      }

      .st1 {
        fill: #0d3857;
      }

      .st2 {
        fill: #d98217;
      }
    </style>
  </defs>
  <path class="st2" d="M471.1,155.5l-148.5,83.1-148.7-83.1c-5.1-2.9-7.1-9.2-4.5-14.5,2.8-5.6,9.6-7.8,15.1-4.8l133.3,71.8c.2.1.3.2.5.3h0c0,0,0,0,.1,0,.6.3,1.2.6,1.9.7.3,0,.5,0,.8.1.4,0,.8.1,1.3.1s.8,0,1.3-.1c.3,0,.6,0,.8-.1.7-.2,1.3-.4,1.9-.7,0,0,0,0,.1,0h0c.2-.1.3-.2.5-.3l133.3-71.8c5.5-3,12.3-.8,15.1,4.8,2.6,5.2.6,11.6-4.5,14.5M491.5,130.6c-2.5-4.8-6.2-8.8-10.8-11.7l-78.5-49c0,.5,0,1.1,0,1.6,0,44-35.8,79.8-79.8,79.8s-79.8-35.8-79.8-79.8h0s-78.5,47.5-78.5,47.5c-4.6,2.9-8.3,6.9-10.8,11.7-7.4,14.4-2,32.1,12.3,39.9l152.7,83.8c1.1.6,2.4.9,3.6.9.1,0,.3,0,.4,0,.1,0,.3,0,.4,0,1.2,0,2.4-.3,3.6-.9l152.7-83.8c14.2-7.8,19.7-25.5,12.3-39.9"/>
  <path class="st0" d="M385.9,65.5h-.2s0,.1,0,.2l.2-.2Z"/>
  <path class="st1" d="M369.7,64.7l-7.4,7.7-1.7-10.5-9.6-4.6,9.5-4.8,1.4-10.6,7.5,7.5,10.5-1.9-4.9,9.5,5.1,9.4-10.5-1.7ZM364.4,119c.4-.3.7-.6,1.1-1l.3,1.7-1.4-.7ZM338.4,125.6l-7.4,7.7-1.7-10.5-9.6-4.6,9.5-4.8,1.4-10.6,7.5,7.6,10.5-1.9-4.9,9.5,5.1,9.4-10.5-1.7ZM307.1,46.9l-1.7-10.5-9.6-4.6,9.5-4.8,1.4-10.6,7.5,7.5,10.5-1.9-4.9,9.5,5.1,9.4-10.5-1.7-7.4,7.7ZM310.9,134.3v-.5c.3,0,.5,0,.7,0l-.7.4ZM282.4,87.1l-7.4,7.7-1.7-10.5-9.6-4.6,9.5-4.8,1.4-10.6,7.5,7.6,10.5-1.9-4.9,9.5,5.1,9.4-10.5-1.7ZM257.5,70.8l1.6-.3c0,.3,0,.6,0,.9s0,.6,0,.9l-1.6-1.5ZM328.5,62.9l6,6,8.4-1.5-3.9,7.6,4,7.5-8.4-1.3-5.9,6.2-1.3-8.4-7.7-3.7,7.6-3.9,1.1-8.4ZM322.5,0c-39.5,0-71.4,32-71.4,71.4s32,71.4,71.4,71.4,71.4-32,71.4-71.4S362,0,322.5,0"/>
  <path class="st1" d="M310.9,134.3l.7-.4c-.2,0-.4,0-.6,0v.5Z"/>
  <path class="st1" d="M364.4,119l1.4.7-.3-1.7c-.4.3-.7.6-1.1,1"/>
  <path class="st1" d="M259.1,70.6l-1.6.3,1.6,1.5c0-.3,0-.6,0-.9s0-.6,0-.9"/>
  <g>
    <path class="st1" d="M39.1,307.6c7.1-7.1,16.5-10.6,28-10.6h86.1v19h-83.9c-6.3,0-11.6,1.4-15.8,4.2-4.3,2.8-6.4,8.1-6.4,16.1v89.2h-18.6v-87.9c0-12.9,3.6-22.9,10.7-29.9"/>
    <rect class="st1" x="34.3" y="351.6" width="73.3" height="19.2"/>
    <path class="st1" d="M173,307.6c7.1-7.1,16.5-10.6,28-10.6h55.7c7.6,0,14.3,1.6,20.2,4.7,5.8,3.1,10.4,7.7,13.7,13.8,3.3,6.1,5,13.4,5,22v87.9h-18.6v-89.2c0-7.8-2.1-13.2-6.4-16-4.3-2.8-9.6-4.3-15.8-4.3h-51.6c-6.3,0-11.6,1.4-15.8,4.3-4.3,2.8-6.4,8.2-6.4,16v89.2h-18.6v-87.9c0-12.9,3.6-22.9,10.7-29.9"/>
    <path class="st1" d="M324.3,415.4c-7.1-6.7-10.6-16.4-10.6-29.2v-49.9c0-12.8,3.5-22.5,10.6-29.2,7.1-6.7,16.5-10,28.3-10h89.9v19h-87.9c-6.3,0-11.6,1.4-15.8,4.2-4.3,2.8-6.4,8.1-6.4,16.1v49.9c0,8,2.1,13.3,6.4,16.1,4.3,2.8,9.6,4.2,15.8,4.2h51.7c6.3,0,11.6-1.4,15.8-4.2,4.3-2.8,6.4-8.1,6.4-16.1v-131h18.8v130.4c0,12.8-3.6,22.6-10.9,29.5-7.2,6.9-16.7,10.3-28.4,10.3h-55.5c-11.8,0-21.3-3.3-28.3-10"/>
    <path class="st1" d="M494.6,420.9c-6-3-10.6-7.5-14-13.5-3.4-6-5.1-13.2-5.1-21.8v-48.9c0-12.8,3.6-22.6,10.9-29.5,7.2-6.9,16.8-10.3,28.6-10.3h57.5c12.3,0,21.8,3.1,28.6,9.4,6.8,6.3,10.1,15.9,10.1,28.8v3.6c0,13.8-3.3,23.6-10,29.5-6.6,5.9-16.2,8.9-28.8,8.9h-54.3v-19h52.1c5.1,0,9.2-.5,12.4-1.5,3.2-1,5.6-3,7.3-6.1,1.7-3,2.5-7.4,2.5-13s-.9-10.6-2.7-13.8c-1.8-3.2-4.3-5.3-7.3-6.2-3.1-1-7-1.4-11.8-1.4h-54.3c-6.5,0-11.8,1.4-16,4.3-4.2,2.8-6.2,8.2-6.2,16v49.9c0,7.8,2.1,13.2,6.4,16,4.3,2.8,9.6,4.3,15.8,4.3h89.6v19h-90.8c-7.7,0-14.6-1.5-20.5-4.5"/>
  </g>
  <g>
    <g>
      <g>
        <polygon class="st2" points="17.2 446.9 33.8 446.9 33.8 452.2 23 452.2 23 462.6 31.2 462.6 31.2 467.8 23 467.8 23 486.6 17.2 486.6 17.2 446.9"/>
        <path class="st2" d="M34.7,477.5v-17.3h5.6v17.4c0,4.2.7,5.3,2.5,5.3s2.9-1.2,2.9-5.7v-17h5.5v26.4h-4.8l-.6-2.9c-1.1,2.7-3.4,3.3-5.3,3.3-3.7,0-5.9-2.2-5.9-9.6"/>
        <path class="st2" d="M55.8,460.2h4.9l.5,2.5c1.1-2.4,3.2-3,5.3-3,4,0,6.1,2.3,6.1,9.7v17.2h-5.6v-17.4c0-4.2-.8-5.3-2.5-5.3s-3,1.2-3,5.7v17h-5.6v-26.4Z"/>
        <path class="st2" d="M84.9,482.5c1.5,0,2.3-.7,2.7-2.2.4-1.5.4-3.8.4-6.9s-.2-5.6-.5-6.8c-.4-1.5-1-2.3-2.7-2.3s-2.3,1-2.6,2.8c-.2,1.1-.2,3.6-.2,6.2s0,5.2.2,6.3c.2,1.9.9,2.8,2.7,2.8M76.3,473.3c0-7.3.7-10,2.6-11.9,1.2-1.2,2.6-1.6,4.6-1.6s3.6.9,4.4,2.2v-15.1h5.6v39.7h-4.7l-.5-2.4c-1,1.9-2.7,2.8-5.2,2.8s-3.2-.5-4.2-1.5c-1.9-1.8-2.6-4.9-2.6-12.2"/>
        <path class="st2" d="M108.7,467c-.3-1.9-1-2.8-2.7-2.8s-2.4.9-2.7,2.8c-.2,1.1-.2,3.6-.2,6.4s0,5.3.2,6.4c.3,1.9,1,2.8,2.7,2.8s2.4-.9,2.7-2.8c.2-1.1.2-3.6.2-6.4s0-5.3-.2-6.4M111.3,485.6c-1.4,1.1-3.3,1.5-5.3,1.5s-3.9-.5-5.3-1.5c-2.5-1.9-3.3-5.1-3.3-12.2s.8-10.3,3.3-12.2c1.4-1.1,3.3-1.5,5.3-1.5s3.9.5,5.3,1.5c2.5,1.9,3.3,5.1,3.3,12.2s-.9,10.3-3.3,12.2"/>
        <polygon class="st2" points="129.1 446.9 134.9 446.9 142.1 469.8 142.5 471.8 142.6 471.8 142.6 446.9 148.4 446.9 148.4 486.6 142.6 486.6 135.4 463.8 135 461.8 134.9 461.8 134.9 486.6 129.1 486.6 129.1 446.9"/>
        <path class="st2" d="M160.5,483c2,0,3.2-1.2,3.2-3.5v-5.3c-4.9,0-6.2,2.3-6.2,5.1s1.1,3.7,3,3.7M163.7,471v-2.3c0-3.1-.6-4.4-2.7-4.4s-3.1,1.2-3.1,4.4l-5.1-1.1c.7-5.8,4.1-7.9,8.6-7.9s7.8,3.1,7.8,9.2v12.3c0,1.4.5,1.6,1.6,1.7v3.5c-.5.2-1.4.3-2.2.3-1.8,0-3.7-.6-4.3-2.6-.9,1.8-2.8,2.7-5.5,2.7-3.9,0-6.9-2.1-6.9-7s2.8-8.8,11.8-9"/>
        <path class="st2" d="M172.8,473.4c0-7.1.8-10.3,3.3-12.2,1.4-1.1,3.3-1.5,5.3-1.5,5.6,0,8,3.2,8.4,8.3l-5.5,1.2c-.1-3-.3-5-2.9-5s-2.4.7-2.7,2.8c-.2,1.1-.2,3.6-.2,6.4s0,5.2.2,6.3c.3,2,1,2.8,2.7,2.8s2.8-1.5,2.9-5.2l5.5,1.2c-.5,5.3-2.8,8.5-8.4,8.5s-3.9-.5-5.3-1.5c-2.5-1.9-3.3-5-3.3-12.2"/>
        <path class="st2" d="M193.4,460.2h5.6v26.4h-5.6v-26.4ZM193.1,450.1h6.1v5.9h-6.1v-5.9Z"/>
        <path class="st2" d="M214.3,467c-.3-1.9-1-2.8-2.7-2.8s-2.4.9-2.7,2.8c-.2,1.1-.2,3.6-.2,6.4s0,5.3.2,6.4c.3,1.9,1,2.8,2.7,2.8s2.4-.9,2.7-2.8c.2-1.1.2-3.6.2-6.4s0-5.3-.2-6.4M216.9,485.6c-1.4,1.1-3.3,1.5-5.3,1.5s-3.9-.5-5.3-1.5c-2.5-1.9-3.3-5.1-3.3-12.2s.8-10.3,3.3-12.2c1.4-1.1,3.3-1.5,5.3-1.5s3.9.5,5.3,1.5c2.5,1.9,3.3,5.1,3.3,12.2s-.9,10.3-3.3,12.2"/>
        <path class="st2" d="M224.1,460.2h4.9l.5,2.5c1.1-2.4,3.2-3,5.3-3,4,0,6.1,2.3,6.1,9.7v17.2h-5.6v-17.4c0-4.2-.8-5.3-2.5-5.3s-3,1.2-3,5.7v17h-5.6v-26.4Z"/>
        <path class="st2" d="M252.3,483c2,0,3.2-1.2,3.2-3.5v-5.3c-4.9,0-6.2,2.3-6.2,5.1s1.1,3.7,3,3.7M255.5,471v-2.3c0-3.1-.6-4.4-2.7-4.4s-3.1,1.2-3.1,4.4l-5.1-1.1c.7-5.8,4.1-7.9,8.6-7.9s7.8,3.1,7.8,9.2v12.3c0,1.4.5,1.6,1.6,1.7v3.5c-.5.2-1.4.3-2.2.3-1.8,0-3.7-.6-4.3-2.6-.9,1.8-2.8,2.7-5.5,2.7-3.9,0-6.9-2.1-6.9-7s2.8-8.8,11.8-9"/>
        <rect class="st2" x="265.3" y="446.9" width="5.6" height="39.7"/>
        <path class="st2" d="M293.6,482.5c1.5,0,2.3-.7,2.7-2.2.4-1.5.4-3.8.4-6.9s-.2-5.6-.5-6.8c-.4-1.5-1-2.3-2.7-2.3s-2.3,1-2.6,2.8c-.2,1.1-.2,3.6-.2,6.2s0,5.2.2,6.3c.2,1.9.9,2.8,2.7,2.8M285,473.3c0-7.3.7-10,2.6-11.9,1.2-1.2,2.6-1.6,4.6-1.6s3.6.9,4.4,2.2v-15.1h5.6v39.7h-4.7l-.5-2.4c-1,1.9-2.7,2.8-5.2,2.8s-3.2-.5-4.2-1.5c-1.9-1.8-2.6-4.9-2.6-12.2"/>
        <path class="st2" d="M311.7,470.5h6.1c0-1.4-.1-2.7-.2-3.6-.2-1.4-.6-2.8-2.8-2.8s-2.5.8-2.8,2.8c-.1.8-.2,2-.3,3.6M306,473.4c0-7.1.9-10.3,3.3-12.2,1.4-1.1,3.3-1.5,5.3-1.5s3.9.5,5.4,1.5c2.4,1.9,3.3,5.1,3.3,13.3h-11.8c0,2.4.1,4.2.3,5.3.3,1.9,1,2.8,2.8,2.8s2.9-1.5,3-5.2l5.4,1.1c-.5,5.2-2.8,8.5-8.4,8.5s-4-.5-5.4-1.5c-2.4-1.8-3.3-4.9-3.3-12.2"/>
      </g>
      <g>
        <path class="st2" d="M345.5,481.4c2.6,0,3.9-.3,4.4-3.2.5-2.2.5-6.6.5-11.5s-.1-9.5-.5-11.5c-.6-2.9-1.8-3.2-4.4-3.2h-2.2v29.4h2.2ZM337.4,446.9h8.7c5.1,0,8.1,1.5,9.3,5.7.8,2.8,1,7,1,14.1s-.2,11.3-1,14.1c-1.3,4.6-4.6,5.7-9.3,5.7h-8.7v-39.7Z"/>
        <path class="st2" d="M365.5,470.5h6.1c0-1.4-.1-2.7-.2-3.6-.2-1.4-.6-2.8-2.8-2.8s-2.5.8-2.8,2.8c-.1.8-.2,2-.3,3.6M359.9,473.4c0-7.1.9-10.3,3.3-12.2,1.4-1.1,3.3-1.5,5.3-1.5s3.9.5,5.4,1.5c2.4,1.9,3.3,5.1,3.3,13.3h-11.8c0,2.4.1,4.2.3,5.3.3,1.9,1,2.8,2.8,2.8s2.9-1.5,3-5.2l5.4,1.1c-.5,5.2-2.8,8.5-8.4,8.5s-4-.5-5.4-1.5c-2.4-1.8-3.3-4.9-3.3-12.2"/>
        <path class="st2" d="M384.9,478c.2,3.5,1.2,4.7,3.3,4.7s2.8-.8,2.8-2.6c0-3-2.3-3.5-5.7-5.6-2.6-1.6-5.2-3.4-5.2-7.7s3.1-7.1,7.9-7.1,7.8,3.1,8.1,8.2l-4.9.9c-.2-3.3-1-4.6-3.1-4.6s-2.8,1-2.8,2.7c0,2.7,2.6,3.5,5.6,5.3,3.5,2.1,5.4,3.8,5.4,7.9s-2.4,7.1-7.9,7.1-8-2.1-8.6-8.2l5-.9Z"/>
        <path class="st2" d="M404.8,470.5h6.1c0-1.4-.1-2.7-.2-3.6-.2-1.4-.6-2.8-2.8-2.8s-2.5.8-2.8,2.8c-.1.8-.2,2-.3,3.6M399.1,473.4c0-7.1.9-10.3,3.3-12.2,1.4-1.1,3.3-1.5,5.3-1.5s3.9.5,5.4,1.5c2.4,1.9,3.3,5.1,3.3,13.3h-11.8c0,2.4.1,4.2.3,5.3.3,1.9,1,2.8,2.8,2.8s2.9-1.5,3-5.2l5.4,1.1c-.5,5.2-2.8,8.5-8.4,8.5s-4-.5-5.4-1.5c-2.4-1.8-3.3-4.9-3.3-12.2"/>
        <path class="st2" d="M420.3,460.2h4.9l.5,2.5c1.1-2.4,3.2-3,5.3-3,4,0,6.1,2.3,6.1,9.7v17.2h-5.6v-17.4c0-4.2-.8-5.3-2.5-5.3s-3,1.2-3,5.7v17h-5.6v-26.4Z"/>
        <polygon class="st2" points="438.6 460.2 444.4 460.2 447.3 476.4 447.7 479 447.9 479 448.3 476.4 451.2 460.2 457 460.2 450.9 486.7 444.7 486.7 438.6 460.2"/>
        <path class="st2" d="M469.6,467c-.3-1.9-1-2.8-2.7-2.8s-2.4.9-2.7,2.8c-.2,1.1-.2,3.6-.2,6.4s0,5.3.2,6.4c.3,1.9,1,2.8,2.7,2.8s2.4-.9,2.7-2.8c.2-1.1.2-3.6.2-6.4s0-5.3-.2-6.4M472.2,485.6c-1.4,1.1-3.3,1.5-5.3,1.5s-3.9-.5-5.3-1.5c-2.5-1.9-3.3-5.1-3.3-12.2s.8-10.3,3.3-12.2c1.4-1.1,3.3-1.5,5.3-1.5s3.9.5,5.3,1.5c2.5,1.9,3.3,5.1,3.3,12.2s-.9,10.3-3.3,12.2"/>
        <rect class="st2" x="479.4" y="446.9" width="5.6" height="39.7"/>
        <polygon class="st2" points="487.6 460.2 493.4 460.2 496.3 476.4 496.8 479 496.9 479 497.3 476.4 500.2 460.2 506 460.2 499.9 486.7 493.7 486.7 487.6 460.2"/>
        <path class="st2" d="M508.6,460.2h5.6v26.4h-5.6v-26.4ZM508.4,450.1h6.1v5.9h-6.1v-5.9Z"/>
        <path class="st2" d="M518.7,460.2h4.9l.4,2.6c1-2.3,3.1-3.1,5.1-3.1s4.2,1.1,5,3.5c1.1-2.7,3.3-3.5,5.6-3.5,4,0,6,2.3,6,9.7v17.1h-5.4v-17.4c0-4.2-.7-5.3-2.4-5.3s-2.9,1.1-2.9,5.7v17h-5.4v-17.4c0-4.2-.7-5.3-2.4-5.3s-2.9,1.1-2.9,5.7v17h-5.4v-26.4Z"/>
        <path class="st2" d="M555,470.5h6.1c0-1.4-.1-2.7-.2-3.6-.2-1.4-.6-2.8-2.8-2.8s-2.5.8-2.8,2.8c-.1.8-.2,2-.3,3.6M549.4,473.4c0-7.1.9-10.3,3.3-12.2,1.4-1.1,3.3-1.5,5.3-1.5s3.9.5,5.4,1.5c2.4,1.9,3.3,5.1,3.3,13.3h-11.8c0,2.4.1,4.2.3,5.3.3,1.9,1,2.8,2.8,2.8s2.9-1.5,3-5.2l5.4,1.1c-.5,5.2-2.8,8.5-8.4,8.5s-4-.5-5.4-1.5c-2.4-1.8-3.3-4.9-3.3-12.2"/>
        <path class="st2" d="M570.6,460.2h4.9l.5,2.5c1.1-2.4,3.2-3,5.3-3,4,0,6.1,2.3,6.1,9.7v17.2h-5.6v-17.4c0-4.2-.8-5.3-2.5-5.3s-3,1.2-3,5.7v17h-5.6v-26.4Z"/>
        <path class="st2" d="M589.5,460.2h2.9v-5.9l5.5-1.2v7.1h4.7v4.6h-4.7v13c0,3.5.7,4.4,2.9,4.4s1.4,0,1.9-.1v4.5c-.9.2-1.7.3-2.9.3-5.2,0-7.5-2.2-7.5-8.3s0-8.4,0-13.8h-2.9v-4.6Z"/>
        <path class="st2" d="M616.4,467c-.3-1.9-1-2.8-2.7-2.8s-2.4.9-2.7,2.8c-.2,1.1-.2,3.6-.2,6.4s0,5.3.2,6.4c.3,1.9,1,2.8,2.7,2.8s2.4-.9,2.7-2.8c.2-1.1.2-3.6.2-6.4s0-5.3-.2-6.4M619,485.6c-1.4,1.1-3.3,1.5-5.3,1.5s-3.9-.5-5.3-1.5c-2.5-1.9-3.3-5.1-3.3-12.2s.8-10.3,3.3-12.2c1.4-1.1,3.3-1.5,5.3-1.5s3.9.5,5.3,1.5c2.5,1.9,3.3,5.1,3.3,12.2s-.9,10.3-3.3,12.2"/>
      </g>
    </g>
    <g>
      <path class="st2" d="M219.8,548c1.5,0,2.3-.7,2.7-2.2.4-1.5.4-3.8.4-6.9s-.2-5.6-.5-6.8c-.4-1.5-1-2.3-2.7-2.3s-2.3,1-2.6,2.8c-.2,1.1-.2,3.6-.2,6.2s0,5.2.2,6.3c.2,1.9.9,2.8,2.7,2.8M211.2,538.8c0-7.3.7-10,2.6-11.9,1.2-1.2,2.6-1.6,4.6-1.6s3.6.9,4.4,2.2v-15.1h5.6v39.7h-4.7l-.5-2.4c-1,1.9-2.7,2.8-5.2,2.8s-3.2-.5-4.2-1.5c-1.9-1.8-2.6-4.9-2.6-12.2"/>
      <path class="st2" d="M240.1,548.5c2,0,3.2-1.2,3.2-3.5v-5.3c-4.9,0-6.2,2.3-6.2,5.1s1.1,3.7,3,3.7M243.2,536.4v-2.3c0-3.1-.6-4.4-2.7-4.4s-3.1,1.2-3.1,4.4l-5.1-1.1c.7-5.8,4.1-7.9,8.6-7.9s7.8,3.1,7.8,9.2v12.3c0,1.4.5,1.6,1.6,1.7v3.5c-.5.2-1.4.3-2.2.3-1.8,0-3.7-.6-4.3-2.6-.9,1.8-2.8,2.7-5.5,2.7-3.9,0-6.9-2.1-6.9-7s2.8-8.8,11.8-9"/>
      <polygon class="st2" points="263.6 512.4 280.4 512.4 280.4 517.6 269.2 517.6 269.2 528 277.4 528 277.4 533.2 269.2 533.2 269.2 546.8 280.4 546.8 280.4 552.1 263.6 552.1 263.6 512.4"/>
      <path class="st2" d="M291.1,548c1.5,0,2.3-.7,2.7-2.2.4-1.5.4-3.8.4-6.9s-.2-5.6-.5-6.8c-.4-1.5-1-2.3-2.7-2.3s-2.3,1-2.6,2.8c-.2,1.1-.2,3.6-.2,6.2s0,5.2.2,6.3c.2,1.9.9,2.8,2.7,2.8M282.4,538.8c0-7.3.7-10,2.6-11.9,1.2-1.2,2.6-1.6,4.6-1.6s3.6.9,4.4,2.2v-15.1h5.6v39.7h-4.7l-.5-2.4c-1,1.9-2.7,2.8-5.2,2.8s-3.2-.5-4.2-1.5c-1.9-1.8-2.6-4.9-2.6-12.2"/>
      <path class="st2" d="M303.9,543v-17.3h5.6v17.4c0,4.2.7,5.3,2.5,5.3s2.9-1.2,2.9-5.7v-17h5.5v26.4h-4.8l-.6-2.9c-1.1,2.7-3.4,3.3-5.3,3.3-3.7,0-5.9-2.2-5.9-9.6"/>
      <path class="st2" d="M324.4,538.9c0-7.1.8-10.3,3.3-12.2,1.4-1.1,3.3-1.5,5.3-1.5,5.6,0,8,3.2,8.4,8.3l-5.5,1.2c-.1-3-.3-5-2.9-5s-2.4.7-2.7,2.8c-.2,1.1-.2,3.6-.2,6.4s0,5.2.2,6.3c.3,2,1,2.8,2.7,2.8s2.8-1.5,2.9-5.2l5.5,1.2c-.5,5.3-2.8,8.5-8.4,8.5s-3.9-.5-5.3-1.5c-2.5-1.9-3.3-5-3.3-12.2"/>
      <path class="st2" d="M351.9,548.5c2,0,3.2-1.2,3.2-3.5v-5.3c-4.9,0-6.2,2.3-6.2,5.1s1.1,3.7,3,3.7M355.1,536.4v-2.3c0-3.1-.6-4.4-2.7-4.4s-3.1,1.2-3.1,4.4l-5.1-1.1c.7-5.8,4.1-7.9,8.6-7.9s7.8,3.1,7.8,9.2v12.3c0,1.4.5,1.6,1.6,1.7v3.5c-.5.2-1.4.3-2.2.3-1.8,0-3.7-.6-4.3-2.6-.9,1.8-2.8,2.7-5.5,2.7-3.9,0-6.9-2.1-6.9-7s2.8-8.8,11.8-9"/>
      <path class="st2" d="M371.3,559.1c1.8,0,2.3-.5,2.3-1.5s-.6-1.4-3.1-1.4h-.7l1.1-3.8c-1.3-.2-2.4-.6-3.4-1.4-2.5-1.9-3.3-5-3.3-12.2s.8-10.3,3.3-12.2c1.4-1.1,3.3-1.5,5.3-1.5,5.6,0,8,3.2,8.4,8.3l-5.5,1.2c-.1-3-.3-5-2.9-5s-2.4.7-2.7,2.8c-.2,1.1-.2,3.6-.2,6.4s0,5.2.2,6.3c.3,2,1,2.8,2.7,2.8s2.8-1.5,2.9-5.2l5.5,1.2c-.5,5.3-2.8,8.4-8.4,8.5l-.5,1.8c3.7,0,5.1.9,5.1,3.3s-1.6,3.6-5.7,3.6-2.2-.1-3.7-.3v-2.2c1.1.2,2.2.4,3.2.4"/>
      <path class="st2" d="M391.7,548.5c2,0,3.2-1.2,3.2-3.5v-5.3c-4.9,0-6.2,2.3-6.2,5.1s1.1,3.7,3,3.7M389.6,516.1c4,0,4,2.9,6.1,2.9s1.4-.9,1.4-2.5h2.7c0,4.6-1.1,6.4-4.2,6.4s-4-2.9-6-2.9-1.4.9-1.4,2.5h-2.7c0-4.6,1.1-6.4,4.2-6.4M394.9,536.4v-2.3c0-3.1-.6-4.4-2.7-4.4s-3.1,1.2-3.1,4.4l-5.1-1.1c.7-5.8,4.1-7.9,8.6-7.9s7.8,3.1,7.8,9.2v12.3c0,1.4.5,1.6,1.6,1.7v3.5c-.5.2-1.4.3-2.2.3-1.8,0-3.7-.6-4.3-2.6-.9,1.8-2.8,2.7-5.5,2.7-3.9,0-6.9-2.1-6.9-7s2.8-8.8,11.8-9"/>
      <path class="st2" d="M415.4,532.5c-.3-1.9-1-2.8-2.7-2.8s-2.4.9-2.7,2.8c-.2,1.1-.2,3.6-.2,6.4s0,5.3.2,6.4c.3,1.9,1,2.8,2.7,2.8s2.4-.9,2.7-2.8c.2-1.1.2-3.6.2-6.4s0-5.3-.2-6.4M418,551.1c-1.4,1.1-3.3,1.5-5.3,1.5s-3.9-.5-5.3-1.5c-2.5-1.9-3.3-5.1-3.3-12.2s.8-10.3,3.3-12.2c1.4-1.1,3.3-1.5,5.3-1.5s3.9.5,5.3,1.5c2.5,1.9,3.3,5.1,3.3,12.2s-.9,10.3-3.3,12.2"/>
    </g>
  </g>
  <g>
    <rect class="st1" x="16.7" y="540" width="182.8" height="9" rx="4.5" ry="4.5"/>
    <rect class="st1" x="440.1" y="540" width="182.8" height="9" rx="4.5" ry="4.5"/>
  </g>
</svg>