<?xml version="1.0" encoding="UTF-8"?>
<svg id="Camada_1" xmlns="http://www.w3.org/2000/svg" version="1.1" viewBox="0 0 1431 265">
  <!-- Generator: Adobe Illustrator 30.2.1, SVG Export Plug-In . SVG Version: 2.1.1 Build 1)  -->
  <defs>
    <style>
      .st0 {
        fill: #1d1d1b;
      }

      .st1 {
        fill: #0d3857;
      }

      .st2 {
        fill: #d98217;
      }
    </style>
  </defs>
  <polygon class="st2" points="1073.9 54.6 1091.6 54.6 1091.6 60.2 1080 60.2 1080 71.3 1088.8 71.3 1088.8 76.9 1080 76.9 1080 97 1073.9 97 1073.9 54.6"/>
  <path class="st2" d="M1092.5,87.3v-18.5h5.9v18.7c0,4.5.8,5.6,2.7,5.6s3.2-1.3,3.2-6.1v-18.2h5.9v28.2h-5.1l-.6-3.1c-1.2,2.9-3.6,3.6-5.7,3.6-3.9,0-6.3-2.4-6.3-10.2"/>
  <path class="st2" d="M1115.1,68.8h5.2l.5,2.7c1.2-2.5,3.4-3.2,5.6-3.2,4.2,0,6.5,2.5,6.5,10.4v18.4h-5.9v-18.7c0-4.5-.8-5.6-2.7-5.6s-3.2,1.3-3.2,6.1v18.2h-5.9v-28.2Z"/>
  <path class="st2" d="M1146.2,92.7c1.6,0,2.4-.8,2.8-2.4.4-1.6.4-4.1.4-7.4s-.2-6-.5-7.3c-.4-1.6-1-2.4-2.8-2.4s-2.5,1-2.8,3c-.2,1.2-.2,3.8-.2,6.7s0,5.5.2,6.8c.2,2.1,1,3,2.8,3M1137,82.8c0-7.8.8-10.7,2.8-12.7,1.3-1.3,2.8-1.8,4.9-1.8s3.8,1,4.7,2.4v-16.1h5.9v42.4h-5l-.5-2.5c-1,2-2.9,3-5.5,3s-3.4-.5-4.5-1.6c-2-1.9-2.8-5.3-2.8-13"/>
  <path class="st2" d="M1171.6,76.1c-.3-2.1-1.1-3-2.9-3s-2.6.9-2.9,3c-.2,1.2-.2,3.8-.2,6.8s0,5.6.2,6.8c.3,2.1,1.1,3,2.9,3s2.6-.9,2.9-3c.2-1.2.2-3.8.2-6.8s0-5.6-.2-6.8M1174.4,95.9c-1.5,1.2-3.6,1.6-5.7,1.6s-4.2-.5-5.7-1.6c-2.7-2-3.6-5.5-3.6-13s.9-11,3.6-13c1.5-1.1,3.6-1.6,5.7-1.6s4.2.5,5.7,1.6c2.7,2,3.6,5.5,3.6,13s-.9,11-3.6,13"/>
  <polygon class="st2" points="1193.5 54.6 1199.7 54.6 1207.4 79 1207.9 81.1 1207.9 81.1 1207.9 54.6 1214.1 54.6 1214.1 97 1207.9 97 1200.2 72.6 1199.7 70.5 1199.7 70.5 1199.7 97 1193.5 97 1193.5 54.6"/>
  <path class="st2" d="M1227.1,93.1c2.1,0,3.4-1.3,3.4-3.7v-5.7c-5.3,0-6.6,2.5-6.6,5.4s1.2,3.9,3.2,3.9M1230.5,80.3v-2.5c0-3.3-.6-4.7-2.9-4.7s-3.3,1.3-3.3,4.7l-5.5-1.2c.7-6.2,4.4-8.4,9.2-8.4s8.3,3.3,8.3,9.9v13.2c0,1.5.5,1.8,1.8,1.8v3.7c-.5.2-1.5.3-2.3.3-1.9,0-3.9-.7-4.6-2.7-1,1.9-3,2.9-5.9,2.9-4.1,0-7.3-2.2-7.3-7.5s3-9.4,12.6-9.6"/>
  <path class="st2" d="M1240.2,82.9c0-7.6.9-11,3.6-13,1.5-1.2,3.5-1.6,5.7-1.6,5.9,0,8.5,3.4,9,8.9l-5.9,1.3c-.1-3.2-.4-5.3-3.1-5.3s-2.6.7-2.9,3c-.2,1.2-.2,3.8-.2,6.8s0,5.6.2,6.8c.3,2.1,1.1,3,2.9,3s3-1.6,3.1-5.5l5.9,1.3c-.5,5.6-3,9.1-9,9.1s-4.2-.5-5.7-1.6c-2.7-2-3.6-5.4-3.6-13"/>
  <path class="st2" d="M1262.3,68.8h5.9v28.2h-5.9v-28.2ZM1262,57.9h6.5v6.3h-6.5v-6.3Z"/>
  <path class="st2" d="M1284.5,76.1c-.3-2.1-1.1-3-2.9-3s-2.6.9-2.9,3c-.2,1.2-.2,3.8-.2,6.8s0,5.6.2,6.8c.3,2.1,1.1,3,2.9,3s2.6-.9,2.9-3c.2-1.2.2-3.8.2-6.8s0-5.6-.2-6.8M1287.3,95.9c-1.5,1.2-3.6,1.6-5.7,1.6s-4.2-.5-5.7-1.6c-2.7-2-3.6-5.5-3.6-13s.9-11,3.6-13c1.5-1.1,3.6-1.6,5.7-1.6s4.2.5,5.7,1.6c2.7,2,3.6,5.5,3.6,13s-.9,11-3.6,13"/>
  <path class="st2" d="M1295.1,68.8h5.2l.5,2.7c1.2-2.5,3.4-3.2,5.6-3.2,4.2,0,6.5,2.5,6.5,10.4v18.4h-5.9v-18.7c0-4.5-.8-5.6-2.7-5.6s-3.2,1.3-3.2,6.1v18.2h-5.9v-28.2Z"/>
  <path class="st2" d="M1325.3,93.1c2.1,0,3.4-1.3,3.4-3.7v-5.7c-5.3,0-6.6,2.5-6.6,5.4s1.2,3.9,3.2,3.9M1328.6,80.3v-2.5c0-3.3-.6-4.7-2.9-4.7s-3.3,1.3-3.3,4.7l-5.5-1.2c.7-6.2,4.4-8.4,9.2-8.4s8.3,3.3,8.3,9.9v13.2c0,1.5.5,1.8,1.8,1.8v3.7c-.5.2-1.5.3-2.3.3-1.9,0-3.9-.7-4.6-2.7-1,1.9-3,2.9-5.9,2.9-4.1,0-7.3-2.2-7.3-7.5s3-9.4,12.6-9.6"/>
  <rect class="st2" x="1339.1" y="54.6" width="5.9" height="42.4"/>
  <path class="st2" d="M1369.4,92.7c1.6,0,2.4-.8,2.8-2.4.4-1.6.4-4.1.4-7.4s-.2-6-.5-7.3c-.4-1.6-1-2.4-2.8-2.4s-2.5,1-2.8,3c-.2,1.2-.2,3.8-.2,6.7s0,5.5.2,6.8c.2,2.1,1,3,2.8,3M1360.2,82.8c0-7.8.8-10.7,2.8-12.7,1.3-1.3,2.8-1.8,4.9-1.8s3.8,1,4.7,2.4v-16.1h5.9v42.4h-5l-.5-2.5c-1,2-2.9,3-5.5,3s-3.4-.5-4.5-1.6c-2-1.9-2.8-5.3-2.8-13"/>
  <path class="st2" d="M1388.7,79.7h6.5c0-1.5-.1-2.9-.2-3.8-.2-1.5-.6-3-3-3s-2.7.8-3,3c-.1.8-.2,2.2-.3,3.8M1382.7,82.9c0-7.6.9-11,3.6-13,1.5-1.2,3.5-1.6,5.7-1.6s4.2.5,5.8,1.6c2.6,2,3.6,5.4,3.6,14.2h-12.6c0,2.5.1,4.5.3,5.6.3,2.1,1,3,3,3s3.1-1.6,3.2-5.5l5.8,1.2c-.5,5.5-3,9.1-9,9.1s-4.3-.5-5.8-1.6c-2.6-1.9-3.6-5.2-3.6-13"/>
  <path class="st2" d="M1082.5,150.8c2.8,0,4.1-.3,4.7-3.4.5-2.3.5-7.1.5-12.3s-.1-10.1-.5-12.3c-.6-3.2-1.9-3.5-4.7-3.5h-2.4v31.4h2.4ZM1073.9,113.9h9.3c5.5,0,8.7,1.6,10,6.1.8,3,1,7.5,1,15.1s-.2,12.1-1,15.1c-1.4,5-4.9,6.1-10,6.1h-9.3v-42.4Z"/>
  <path class="st2" d="M1103.9,139.1h6.5c0-1.5-.1-2.9-.2-3.8-.2-1.5-.6-3-3-3s-2.7.8-3,3c-.1.8-.2,2.2-.3,3.8M1097.9,142.2c0-7.6.9-11,3.6-13,1.5-1.2,3.5-1.6,5.7-1.6s4.2.5,5.8,1.6c2.6,2,3.6,5.4,3.6,14.2h-12.6c0,2.5.1,4.5.3,5.6.3,2.1,1,3,3,3s3.1-1.6,3.2-5.5l5.8,1.2c-.5,5.5-3,9.1-9,9.1s-4.3-.5-5.8-1.6c-2.6-1.9-3.6-5.2-3.6-13"/>
  <path class="st2" d="M1124.6,147.1c.2,3.8,1.3,5,3.6,5s3-.8,3-2.8c0-3.2-2.5-3.8-6.1-6-2.8-1.8-5.5-3.6-5.5-8.2s3.3-7.6,8.5-7.6,8.4,3.3,8.7,8.7l-5.3.9c-.2-3.5-1.1-5-3.3-5s-3,1-3,2.8c0,2.9,2.7,3.7,5.9,5.6,3.8,2.2,5.8,4.1,5.8,8.5s-2.5,7.6-8.4,7.6-8.6-2.2-9.1-8.7l5.3-1Z"/>
  <path class="st2" d="M1145.9,139.1h6.5c0-1.5-.1-2.9-.2-3.8-.2-1.5-.6-3-3-3s-2.7.8-3,3c-.1.8-.2,2.2-.3,3.8M1139.9,142.2c0-7.6.9-11,3.6-13,1.5-1.2,3.5-1.6,5.7-1.6s4.2.5,5.8,1.6c2.6,2,3.6,5.4,3.6,14.2h-12.6c0,2.5.1,4.5.3,5.6.3,2.1,1,3,3,3s3.1-1.6,3.2-5.5l5.8,1.2c-.5,5.5-3,9.1-9,9.1s-4.3-.5-5.8-1.6c-2.6-1.9-3.6-5.2-3.6-13"/>
  <path class="st2" d="M1162.5,128.1h5.2l.5,2.7c1.1-2.5,3.4-3.2,5.6-3.2,4.2,0,6.5,2.5,6.5,10.4v18.4h-5.9v-18.7c0-4.5-.8-5.6-2.7-5.6s-3.2,1.3-3.2,6.1v18.2h-5.9v-28.2Z"/>
  <polygon class="st2" points="1182.1 128.1 1188.3 128.1 1191.4 145.4 1191.9 148.2 1192 148.2 1192.5 145.4 1195.6 128.1 1201.7 128.1 1195.3 156.5 1188.6 156.5 1182.1 128.1"/>
  <path class="st2" d="M1215.2,135.4c-.3-2.1-1.1-3-2.9-3s-2.6.9-2.9,3c-.2,1.2-.2,3.8-.2,6.8s0,5.6.2,6.8c.3,2.1,1.1,3,2.9,3s2.6-.9,2.9-3c.2-1.2.2-3.8.2-6.8s0-5.6-.2-6.8M1218,155.3c-1.5,1.2-3.6,1.6-5.7,1.6s-4.2-.5-5.7-1.6c-2.7-2-3.6-5.5-3.6-13s.9-11,3.6-13c1.5-1.2,3.6-1.6,5.7-1.6s4.2.5,5.7,1.6c2.7,2,3.6,5.5,3.6,13s-.9,11-3.6,13"/>
  <rect class="st2" x="1225.7" y="113.9" width="5.9" height="42.4"/>
  <polygon class="st2" points="1234.5 128.1 1240.7 128.1 1243.8 145.4 1244.3 148.2 1244.4 148.2 1244.9 145.4 1248 128.1 1254.1 128.1 1247.7 156.5 1241 156.5 1234.5 128.1"/>
  <path class="st2" d="M1257,128.1h5.9v28.2h-5.9v-28.2ZM1256.7,117.3h6.5v6.3h-6.5v-6.3Z"/>
  <path class="st2" d="M1267.8,128.1h5.2l.4,2.8c1.1-2.5,3.3-3.3,5.5-3.3s4.5,1.2,5.3,3.8c1.2-2.9,3.6-3.8,6-3.8,4.3,0,6.4,2.5,6.4,10.4v18.3h-5.8v-18.7c0-4.5-.7-5.6-2.5-5.6s-3.2,1.2-3.2,6.1v18.2h-5.8v-18.7c0-4.5-.7-5.6-2.5-5.6s-3.1,1.2-3.1,6.1v18.2h-5.8v-28.2Z"/>
  <path class="st2" d="M1306.6,139.1h6.5c0-1.5-.1-2.9-.2-3.8-.2-1.5-.6-3-3-3s-2.7.8-3,3c-.1.8-.2,2.2-.3,3.8M1300.6,142.2c0-7.6.9-11,3.6-13,1.5-1.2,3.5-1.6,5.7-1.6s4.2.5,5.8,1.6c2.6,2,3.6,5.4,3.6,14.2h-12.6c0,2.5.1,4.5.3,5.6.3,2.1,1,3,3,3s3.1-1.6,3.2-5.5l5.8,1.2c-.5,5.5-3,9.1-9,9.1s-4.3-.5-5.8-1.6c-2.6-1.9-3.6-5.2-3.6-13"/>
  <path class="st2" d="M1323.3,128.1h5.2l.5,2.7c1.2-2.5,3.4-3.2,5.6-3.2,4.2,0,6.5,2.5,6.5,10.4v18.4h-5.9v-18.7c0-4.5-.8-5.6-2.7-5.6s-3.2,1.3-3.2,6.1v18.2h-5.9v-28.2Z"/>
  <path class="st2" d="M1343.5,128.1h3.1v-6.3l5.9-1.3v7.6h5v5h-5v13.9c0,3.7.8,4.7,3.1,4.7s1.5,0,2-.1v4.8c-.9.2-1.8.3-3.1.3-5.5,0-8-2.3-8-8.8s0-9,0-14.8h-3.1v-5Z"/>
  <path class="st2" d="M1372.2,135.4c-.3-2.1-1.1-3-2.9-3s-2.6.9-2.9,3c-.2,1.2-.2,3.8-.2,6.8s0,5.6.2,6.8c.3,2.1,1.1,3,2.9,3s2.6-.9,2.9-3c.2-1.2.2-3.8.2-6.8s0-5.6-.2-6.8M1375,155.3c-1.5,1.2-3.6,1.6-5.7,1.6s-4.2-.5-5.7-1.6c-2.7-2-3.6-5.5-3.6-13s.9-11,3.6-13c1.5-1.2,3.6-1.6,5.7-1.6s4.2.5,5.7,1.6c2.7,2,3.6,5.5,3.6,13s-.9,11-3.6,13"/>
  <path class="st2" d="M1082.1,211.3c1.6,0,2.4-.8,2.8-2.4.4-1.6.4-4.1.4-7.4s-.2-6-.5-7.3c-.4-1.6-1-2.4-2.8-2.4s-2.5,1-2.8,3c-.2,1.2-.2,3.8-.2,6.7s0,5.5.2,6.8c.2,2.1,1,3,2.8,3M1072.9,201.5c0-7.8.8-10.7,2.8-12.7,1.3-1.3,2.8-1.8,4.9-1.8s3.8,1,4.7,2.4v-16.1h5.9v42.4h-5l-.5-2.5c-1,2-2.9,3-5.5,3s-3.4-.5-4.5-1.6c-2-1.9-2.8-5.3-2.8-13"/>
  <path class="st2" d="M1103.7,211.8c2.1,0,3.4-1.3,3.4-3.7v-5.7c-5.3,0-6.6,2.5-6.6,5.4s1.2,3.9,3.2,3.9M1107.1,199v-2.5c0-3.3-.6-4.7-2.9-4.7s-3.3,1.3-3.3,4.7l-5.5-1.2c.7-6.2,4.4-8.4,9.2-8.4s8.3,3.3,8.3,9.9v13.2c0,1.5.5,1.8,1.8,1.8v3.7c-.5.2-1.5.3-2.3.3-1.9,0-3.9-.7-4.6-2.7-1,1.9-3,2.9-5.9,2.9-4.1,0-7.3-2.2-7.3-7.5s3-9.4,12.6-9.6"/>
  <polygon class="st2" points="1128.9 173.3 1146.8 173.3 1146.8 178.9 1134.9 178.9 1134.9 189.9 1143.6 189.9 1143.6 195.5 1134.9 195.5 1134.9 210 1146.8 210 1146.8 215.7 1128.9 215.7 1128.9 173.3"/>
  <path class="st2" d="M1158.2,211.3c1.6,0,2.4-.8,2.8-2.4.4-1.6.4-4.1.4-7.4s-.2-6-.5-7.3c-.4-1.6-1-2.4-2.8-2.4s-2.5,1-2.8,3c-.2,1.2-.2,3.8-.2,6.7s0,5.5.2,6.8c.2,2.1,1,3,2.8,3M1149,201.5c0-7.8.8-10.7,2.8-12.7,1.3-1.3,2.8-1.8,4.9-1.8s3.8,1,4.7,2.4v-16.1h5.9v42.4h-5l-.5-2.5c-1,2-2.9,3-5.5,3s-3.4-.5-4.5-1.6c-2-1.9-2.8-5.3-2.8-13"/>
  <path class="st2" d="M1172,205.9v-18.5h5.9v18.7c0,4.5.8,5.6,2.7,5.6s3.2-1.3,3.2-6.1v-18.2h5.9v28.2h-5.1l-.6-3.1c-1.2,2.9-3.6,3.6-5.7,3.6-3.9,0-6.3-2.4-6.3-10.2"/>
  <path class="st2" d="M1193.9,201.6c0-7.6.9-11,3.6-13,1.5-1.2,3.5-1.6,5.7-1.6,5.9,0,8.5,3.4,9,8.9l-5.9,1.3c-.1-3.2-.4-5.3-3.1-5.3s-2.6.7-2.9,3c-.2,1.2-.2,3.8-.2,6.8s0,5.6.2,6.8c.3,2.1,1.1,3,2.9,3s3-1.6,3.1-5.5l5.9,1.3c-.5,5.6-3,9.1-9,9.1s-4.2-.5-5.7-1.6c-2.7-2-3.6-5.4-3.6-13"/>
  <path class="st2" d="M1223.3,211.8c2.1,0,3.4-1.3,3.4-3.7v-5.7c-5.3,0-6.6,2.5-6.6,5.4s1.2,3.9,3.2,3.9M1226.7,199v-2.5c0-3.3-.6-4.7-2.9-4.7s-3.3,1.3-3.3,4.7l-5.5-1.2c.7-6.2,4.4-8.4,9.2-8.4s8.3,3.3,8.3,9.9v13.2c0,1.5.5,1.8,1.8,1.8v3.7c-.5.2-1.5.3-2.3.3-1.9,0-3.9-.7-4.6-2.7-1,1.9-3,2.9-5.9,2.9-4.1,0-7.3-2.2-7.3-7.5s3-9.4,12.6-9.6"/>
  <path class="st2" d="M1244.1,223.2c1.9,0,2.4-.5,2.4-1.6s-.6-1.5-3.3-1.5h-.8l1.2-4.1c-1.4-.2-2.6-.7-3.6-1.5-2.7-2-3.6-5.4-3.6-13s.9-11,3.6-13c1.5-1.1,3.5-1.6,5.7-1.6,5.9,0,8.5,3.4,9,8.9l-5.9,1.3c-.1-3.2-.4-5.3-3.1-5.3s-2.6.7-2.9,3c-.2,1.2-.2,3.8-.2,6.8s0,5.6.2,6.8c.3,2.1,1.1,3,2.9,3s3-1.6,3.1-5.5l5.9,1.3c-.5,5.6-3,9-9,9.1l-.5,1.9c4,0,5.5.9,5.5,3.5s-1.7,3.9-6.1,3.9-2.4-.1-4-.4v-2.4c1.2.2,2.3.4,3.4.4"/>
  <path class="st2" d="M1265.9,211.8c2.1,0,3.4-1.3,3.4-3.7v-5.7c-5.3,0-6.6,2.5-6.6,5.4s1.2,3.9,3.2,3.9M1263.6,177.2c4.2,0,4.3,3.1,6.5,3.1s1.5-.9,1.5-2.7h2.8c0,4.9-1.2,6.8-4.5,6.8s-4.2-3.1-6.4-3.1-1.5.9-1.5,2.7h-2.8c0-5,1.2-6.8,4.5-6.8M1269.3,199v-2.5c0-3.3-.6-4.7-2.9-4.7s-3.3,1.3-3.3,4.7l-5.5-1.2c.7-6.2,4.4-8.4,9.2-8.4s8.3,3.3,8.3,9.9v13.2c0,1.5.5,1.8,1.8,1.8v3.7c-.5.2-1.5.3-2.3.3-1.9,0-3.9-.7-4.6-2.7-1,1.9-3,2.9-5.9,2.9-4.1,0-7.3-2.2-7.3-7.5s3-9.4,12.6-9.6"/>
  <path class="st2" d="M1291.2,194.7c-.3-2.1-1.1-3-2.9-3s-2.6.9-2.9,3c-.2,1.2-.2,3.8-.2,6.8s0,5.6.2,6.8c.3,2.1,1.1,3,2.9,3s2.6-.9,2.9-3c.2-1.2.2-3.8.2-6.8s0-5.6-.2-6.8M1294,214.6c-1.5,1.2-3.6,1.6-5.7,1.6s-4.2-.5-5.7-1.6c-2.7-2-3.6-5.5-3.6-13s.9-11,3.6-13c1.5-1.1,3.6-1.6,5.7-1.6s4.2.5,5.7,1.6c2.7,2,3.6,5.5,3.6,13s-.9,11-3.6,13"/>
  <path class="st1" d="M1040.5,216.4V57.4c0-1.5,1.2-2.8,2.8-2.8h.8c1.5,0,2.8,1.2,2.8,2.8v159c0,1.5-1.2,2.8-2.8,2.8h-.8c-1.5,0-2.8-1.2-2.8-2.8"/>
  <path class="st1" d="M442.7,83.3c7.1-7.1,16.5-10.6,28-10.6h86.1v19h-83.9c-6.3,0-11.6,1.4-15.8,4.2-4.3,2.8-6.4,8.1-6.4,16.1v89.2h-18.6v-87.9c0-12.9,3.6-22.9,10.7-29.9"/>
  <rect class="st1" x="437.9" y="127.3" width="73.3" height="19.2"/>
  <path class="st1" d="M576.5,83.3c7.1-7.1,16.5-10.6,28-10.6h55.7c7.6,0,14.3,1.6,20.2,4.7,5.8,3.1,10.4,7.7,13.7,13.8,3.3,6.1,5,13.4,5,22v87.9h-18.6v-89.2c0-7.8-2.1-13.2-6.4-16-4.3-2.8-9.6-4.3-15.8-4.3h-51.6c-6.3,0-11.6,1.4-15.8,4.3-4.3,2.8-6.4,8.2-6.4,16v89.2h-18.6v-87.9c0-12.9,3.6-22.9,10.7-29.9"/>
  <path class="st1" d="M727.9,191.1c-7.1-6.7-10.6-16.4-10.6-29.2v-49.9c0-12.8,3.5-22.5,10.6-29.2,7.1-6.7,16.5-10,28.3-10h89.9v19h-87.9c-6.3,0-11.6,1.4-15.8,4.2-4.3,2.8-6.4,8.1-6.4,16.1v49.9c0,8,2.1,13.3,6.4,16.1,4.3,2.8,9.6,4.2,15.8,4.2h51.7c6.3,0,11.6-1.4,15.8-4.2,4.3-2.8,6.4-8.1,6.4-16.1V30.9h18.8v130.4c0,12.8-3.6,22.6-10.9,29.5-7.2,6.9-16.7,10.3-28.4,10.3h-55.5c-11.8,0-21.3-3.3-28.3-10"/>
  <path class="st1" d="M898.1,196.6c-6-3-10.6-7.5-14-13.5-3.4-6-5.1-13.2-5.1-21.8v-48.9c0-12.8,3.6-22.6,10.9-29.5,7.2-6.9,16.8-10.3,28.6-10.3h57.5c12.3,0,21.8,3.1,28.6,9.4,6.8,6.3,10.1,15.9,10.1,28.8v3.6c0,13.8-3.3,23.6-10,29.5-6.6,5.9-16.2,8.9-28.8,8.9h-54.3v-19h52.1c5.1,0,9.2-.5,12.4-1.5,3.2-1,5.6-3,7.3-6.1,1.7-3,2.5-7.4,2.5-13s-.9-10.6-2.7-13.8c-1.8-3.2-4.3-5.3-7.3-6.2-3.1-1-7-1.4-11.8-1.4h-54.3c-6.5,0-11.8,1.4-16,4.3-4.2,2.8-6.2,8.2-6.2,16v49.9c0,7.8,2.1,13.2,6.4,16,4.3,2.8,9.6,4.3,15.8,4.3h89.6v19h-90.8c-7.7,0-14.6-1.5-20.5-4.5"/>
  <path class="st2" d="M352.9,160.4l-148.5,83.1L55.7,160.4c-5.1-2.9-7.1-9.2-4.5-14.5,2.8-5.6,9.6-7.8,15.1-4.8l133.3,71.8c.2.1.3.2.5.3h0c0,0,0,0,.1,0,.6.3,1.2.6,1.9.7.3,0,.5,0,.8.1.4,0,.8.1,1.3.1s.8,0,1.3-.1c.3,0,.6,0,.8-.1.7-.2,1.3-.4,1.9-.7,0,0,0,0,.1,0h0c.2-.1.3-.2.5-.3l133.3-71.8c5.5-3,12.3-.8,15.1,4.8,2.6,5.2.6,11.6-4.5,14.5M373.4,135.5c-2.5-4.8-6.2-8.8-10.8-11.7l-78.5-49c0,.5,0,1.1,0,1.6,0,44-35.8,79.8-79.8,79.8s-79.8-35.8-79.8-79.8h0s-78.5,47.5-78.5,47.5c-4.6,2.9-8.3,6.9-10.8,11.7-7.4,14.4-2,32.1,12.3,39.9l152.7,83.8c1.1.6,2.4.9,3.6.9.1,0,.3,0,.4,0,.1,0,.3,0,.4,0,1.2,0,2.4-.3,3.6-.9l152.7-83.8c14.2-7.8,19.7-25.5,12.3-39.9"/>
  <path class="st0" d="M267.7,70.4h-.2s0,.1,0,.2l.2-.2Z"/>
  <path class="st1" d="M251.5,69.6l-7.4,7.7-1.7-10.5-9.6-4.6,9.5-4.8,1.4-10.6,7.5,7.5,10.5-1.9-4.9,9.5,5.1,9.4-10.5-1.7ZM246.2,123.9c.4-.3.7-.6,1.1-1l.3,1.7-1.4-.7ZM220.3,130.5l-7.4,7.7-1.7-10.5-9.6-4.6,9.5-4.8,1.4-10.6,7.5,7.6,10.5-1.9-4.9,9.5,5.1,9.4-10.5-1.7ZM189,51.8l-1.7-10.5-9.6-4.6,9.5-4.8,1.4-10.6,7.5,7.5,10.5-1.9-4.9,9.5,5.1,9.4-10.5-1.7-7.4,7.7ZM192.8,139.2v-.5c.3,0,.5,0,.7,0l-.7.4ZM164.3,92l-7.4,7.7-1.7-10.5-9.6-4.6,9.5-4.8,1.4-10.6,7.5,7.6,10.5-1.9-4.9,9.5,5.1,9.4-10.5-1.7ZM139.3,75.7l1.6-.3c0,.3,0,.6,0,.9s0,.6,0,.9l-1.6-1.5ZM210.3,67.8l6,6,8.4-1.5-3.9,7.6,4,7.5-8.4-1.3-5.9,6.2-1.3-8.4-7.7-3.7,7.6-3.9,1.1-8.4ZM204.3,4.9c-39.5,0-71.4,32-71.4,71.4s32,71.4,71.4,71.4,71.4-32,71.4-71.4S243.8,4.9,204.3,4.9"/>
  <path class="st1" d="M192.8,139.2l.7-.4c-.2,0-.4,0-.6,0v.5Z"/>
  <path class="st1" d="M246.2,123.9l1.4.7-.3-1.7c-.4.3-.7.6-1.1,1"/>
  <path class="st1" d="M140.9,75.5l-1.6.3,1.6,1.5c0-.3,0-.6,0-.9s0-.6,0-.9"/>
</svg>