<?xml version="1.0" encoding="UTF-8"?>
<svg id="Camada_1" xmlns="http://www.w3.org/2000/svg" version="1.1" viewBox="0 0 512 512">
  <!-- Generator: Adobe Illustrator 30.2.1, SVG Export Plug-In . SVG Version: 2.1.1 Build 1)  -->
  <defs>
    <style>
      .st0 {
        fill: #1d1d1b;
      }

      .st1 {
        fill: #0d3857;
      }

      .st2 {
        fill: #d98217;
      }
    </style>
  </defs>
  <path class="st2" d="M464.5,295.5l-207.9,116.3-208.2-116.3c-7.1-4-9.9-12.9-6.3-20.2,3.9-7.8,13.5-10.9,21.1-6.7l186.6,100.5c.2.1.4.2.7.4h.1c0,0,.1,0,.2.1.8.4,1.7.8,2.6,1,.4.1.8.1,1.2.2.6,0,1.2.2,1.8.2s1.2,0,1.8-.2c.4,0,.8,0,1.2-.2.9-.2,1.8-.6,2.6-1,0,0,.1,0,.2,0h.1c.2-.2.5-.3.7-.4l186.6-100.5c7.7-4.2,17.3-1.1,21.1,6.7,3.6,7.3.9,16.2-6.3,20.2M493.1,260.6c-3.4-6.7-8.6-12.4-15.1-16.4l-109.9-68.7c0,.7.1,1.5.1,2.2,0,61.6-50.1,111.7-111.7,111.7s-111.7-50.1-111.7-111.7h0s-109.8,66.4-109.8,66.4c-6.4,4-11.6,9.7-15.1,16.4-10.4,20.2-2.7,44.9,17.2,55.8l213.8,117.3c1.6.9,3.3,1.3,5,1.3.2,0,.4,0,.6,0,.2,0,.4,0,.6,0,1.7,0,3.4-.4,5-1.3l213.8-117.3c19.9-10.9,27.5-35.6,17.2-55.8"/>
  <path class="st0" d="M345.1,169.4h-.2c0,0,0,.2,0,.2l.2-.2Z"/>
  <path class="st1" d="M322.5,168.4l-10.3,10.8-2.3-14.8-13.5-6.4,13.3-6.8,2-14.8,10.6,10.6,14.7-2.7-6.8,13.3,7.1,13.1-14.8-2.3ZM315.1,244.3c.5-.4,1-.9,1.5-1.4l.5,2.3-1.9-1ZM278.8,253.6l-10.3,10.8-2.3-14.8-13.5-6.4,13.3-6.8,2-14.8,10.6,10.6,14.7-2.7-6.8,13.3,7.1,13.1-14.8-2.4ZM234.9,143.4l-2.3-14.8-13.5-6.4,13.3-6.8,2-14.8,10.6,10.6,14.7-2.7-6.8,13.3,7.1,13.1-14.8-2.3-10.3,10.8ZM240.3,265.7v-.6c.4,0,.6,0,.9.1l-.9.5ZM200.3,199.7l-10.3,10.8-2.3-14.8-13.5-6.4,13.3-6.8,2-14.8,10.6,10.6,14.7-2.7-6.8,13.3,7.1,13.1-14.8-2.4ZM165.4,176.9l2.2-.4c0,.4,0,.8,0,1.2s0,.8,0,1.3l-2.2-2.1ZM264.8,165.8l8.4,8.4,11.7-2.2-5.4,10.6,5.7,10.5-11.7-1.9-8.2,8.6-1.9-11.7-10.7-5.1,10.6-5.4,1.6-11.8ZM256.4,77.8c-55.2,0-100,44.8-100,100s44.8,100,100,100,100-44.8,100-100-44.8-100-100-100"/>
  <path class="st1" d="M240.3,265.7l.9-.5c-.3,0-.6,0-.8-.1v.6Z"/>
  <path class="st1" d="M315.1,244.3l1.9,1-.5-2.3c-.5.5-1,.9-1.5,1.4"/>
  <path class="st1" d="M167.6,176.5l-2.2.4,2.2,2.1c0-.4,0-.8,0-1.3s0-.8,0-1.2"/>
</svg>